<?xml version="1.0" standalone="no"?>
<!DOCTYPE svg PUBLIC "-//W3C//DTD SVG 20010904//EN"
 "http://www.w3.org/TR/2001/REC-SVG-20010904/DTD/svg10.dtd">
<svg version="1.0" xmlns="http://www.w3.org/2000/svg"
 width="990.000000pt" height="557.000000pt" viewBox="0 0 990.000000 557.000000"
 preserveAspectRatio="xMidYMid meet">

<g transform="translate(0.000000,557.000000) scale(0.100000,-0.100000)"
fill="#000000" stroke="none">
<path d="M4730 5264 c-572 -80 -1062 -426 -1331 -938 -85 -163 -139 -322 -175
-516 -23 -120 -26 -457 -6 -570 49 -270 140 -502 280 -711 495 -736 1442 -996
2238 -615 803 385 1194 1309 913 2161 -41 126 -156 352 -236 465 -87 123 -292
327 -413 412 -214 151 -462 255 -725 303 -127 23 -411 28 -545 9z m565 -74
c358 -71 656 -236 916 -508 656 -684 618 -1780 -83 -2426 -225 -208 -513 -356
-809 -416 -451 -92 -915 -3 -1291 249 -587 393 -870 1082 -728 1771 30 145 75
272 146 415 249 503 731 849 1294 931 140 20 414 12 555 -16z"/>
<path d="M4746 5131 c-10 -11 -30 -22 -44 -26 l-27 -7 25 -10 25 -10 -45 -41
c-79 -73 -107 -145 -62 -162 18 -7 32 11 32 40 0 30 78 135 100 135 30 0 50
-11 50 -27 0 -22 -41 -52 -71 -53 -15 0 -30 -7 -33 -16 -11 -30 -6 -37 14 -19
24 22 26 21 33 -27 4 -26 2 -38 -6 -38 -7 -1 -25 -7 -42 -16 -29 -14 -29 -14
25 -10 53 5 54 5 34 -12 -12 -9 -30 -23 -40 -29 -16 -11 -12 -12 31 -10 l50 2
-2 38 c-2 35 -1 37 28 37 24 0 30 4 27 18 -4 21 -57 29 -69 11 -12 -20 -17 -8
-12 28 4 23 13 35 34 44 39 16 42 23 24 58 -10 20 -27 34 -48 39 l-32 9 38 22
c43 26 46 36 15 45 -32 8 -33 8 -52 -13z"/>
<path d="M5225 5110 c-12 -23 -25 -31 -55 -36 -42 -7 -45 -24 -4 -24 29 0 29
3 4 -47 -16 -33 -26 -42 -55 -47 -19 -4 -39 -5 -44 -2 -5 3 -16 -6 -26 -20
-21 -33 -5 -56 34 -48 25 5 30 2 44 -34 20 -51 37 -62 37 -26 l0 28 20 -21
c15 -17 28 -20 64 -17 37 4 47 1 59 -17 18 -25 50 -22 56 6 2 12 -7 27 -24 41
-25 19 -26 24 -17 58 8 29 7 39 -5 51 -8 8 -19 15 -24 15 -26 0 -3 22 47 45
58 27 60 30 22 49 -14 7 -25 24 -28 41 -3 18 -12 31 -23 33 -12 2 -15 -1 -11
-12 9 -23 -26 -106 -44 -106 -9 0 -24 -8 -35 -17 -20 -17 -20 -17 -13 2 5 11
13 34 19 50 6 17 19 36 29 43 22 16 23 28 3 36 -10 3 -20 -5 -30 -24z m112
-72 c-26 -17 -37 -9 -25 18 11 24 13 25 25 8 10 -14 10 -19 0 -26z m-82 -58
c-3 -5 -3 -21 1 -36 6 -24 8 -25 19 -11 16 22 23 13 17 -19 -5 -26 -11 -27
-56 -8 -16 6 -18 4 -12 -12 20 -47 19 -54 -6 -54 -34 0 -62 33 -54 64 7 29 62
86 82 86 9 0 13 -4 9 -10z"/>
<path d="M4590 5096 c0 -24 23 -56 41 -56 15 0 9 34 -10 58 -24 28 -31 28 -31
-2z"/>
<path d="M4210 4972 c0 -5 7 -17 15 -28 19 -25 20 -58 0 -51 -19 8 -31 -11
-16 -26 21 -21 12 -38 -16 -35 -26 3 -28 0 -29 -35 0 -27 -8 -45 -29 -67 -16
-16 -30 -29 -31 -27 -2 2 6 31 16 66 22 71 26 125 9 119 -7 -2 -13 -29 -15
-58 -1 -30 -9 -70 -17 -89 -23 -54 -3 -96 25 -51 20 32 25 24 17 -32 -13 -106
31 -119 75 -23 3 6 10 2 16 -7 11 -18 40 -25 40 -10 0 5 -11 19 -24 31 -20 19
-24 32 -24 91 -1 38 3 72 9 75 9 6 11 -6 13 -80 2 -66 13 -72 56 -30 l38 37
12 -23 c14 -28 60 -79 71 -79 10 0 -9 77 -31 123 -25 51 -25 69 0 92 23 20 26
35 8 35 -26 0 -98 33 -98 45 0 7 -15 20 -34 29 -37 18 -56 20 -56 8z m-23
-184 c-3 -8 -6 -5 -6 6 -1 11 2 17 5 13 3 -3 4 -12 1 -19z m104 -31 c-8 -8
-11 -7 -11 4 0 20 13 34 18 19 3 -7 -1 -17 -7 -23z m-90 -30 c-8 -8 -11 -4
-11 14 0 33 14 47 18 19 2 -12 -1 -27 -7 -33z m-11 -57 c0 -11 -4 -20 -10 -20
-5 0 -10 9 -10 20 0 11 5 20 10 20 6 0 10 -9 10 -20z"/>
<path d="M5790 4891 c0 -5 -17 -28 -38 -50 -37 -40 -65 -51 -77 -31 -11 17
-25 11 -25 -11 0 -12 8 -23 20 -26 11 -3 20 -9 20 -15 0 -5 -7 -5 -18 1 -25
14 -101 -5 -129 -31 -29 -27 -31 -68 -4 -68 10 0 30 9 44 20 14 11 32 17 41
14 14 -5 14 -8 1 -27 -16 -22 -21 -67 -7 -67 4 0 16 17 27 37 28 51 40 51 40
1 0 -39 2 -43 25 -43 21 0 25 6 32 45 10 57 6 68 -27 72 l-27 3 20 25 c17 22
27 25 76 25 58 -1 70 7 38 24 -13 7 -22 7 -29 0 -5 -5 -17 -7 -27 -3 -16 6
-15 8 4 29 23 25 44 85 29 85 -5 0 -9 -4 -9 -9z m-133 -168 c-9 -9 -20 -12
-28 -8 -9 6 -8 11 6 21 23 17 42 6 22 -13z"/>
<path d="M5848 4846 c-6 -32 8 -56 33 -56 16 0 20 6 17 26 -2 15 -13 33 -24
41 -20 13 -22 12 -26 -11z"/>
<path d="M4815 4725 c-83 -18 -177 -58 -252 -106 -63 -42 -176 -153 -208 -205
-13 -22 -33 -34 -88 -52 -338 -108 -554 -468 -493 -819 20 -114 55 -205 116
-297 47 -70 47 -72 53 -171 21 -381 315 -675 701 -702 85 -6 227 15 293 42 29
12 39 12 87 -5 127 -43 287 -49 422 -15 149 38 318 151 407 273 89 121 147
291 147 432 0 70 2 77 40 132 51 72 94 164 117 248 24 88 24 281 0 370 -64
240 -256 442 -490 516 -52 16 -62 24 -105 83 -93 127 -268 240 -429 275 -86
19 -234 20 -318 1z m430 -239 c346 -103 598 -355 701 -701 38 -127 45 -337 16
-476 -41 -196 -142 -383 -282 -520 -129 -126 -255 -200 -437 -256 -81 -25
-102 -27 -263 -27 -208 -1 -283 15 -445 94 -119 58 -206 121 -299 220 -465
494 -321 1293 289 1597 165 83 266 104 475 99 132 -3 168 -8 245 -30z"/>
<path d="M4855 4451 c-336 -44 -635 -272 -761 -580 -50 -124 -67 -215 -67
-356 0 -263 81 -467 260 -655 132 -139 266 -218 453 -268 138 -36 324 -36 464
1 186 50 322 132 458 276 235 250 315 612 207 936 -126 378 -460 631 -854 649
-55 3 -127 1 -160 -3z m255 -32 c196 -31 368 -119 509 -260 163 -164 254 -365
268 -596 24 -404 -226 -779 -611 -916 -337 -119 -703 -34 -956 223 -363 368
-351 953 26 1311 202 190 494 282 764 238z"/>
<path d="M4716 4109 c-111 -9 -137 -18 -55 -20 30 -1 65 -4 79 -8 20 -6 13 -9
-35 -15 -33 -4 -76 -10 -95 -13 -31 -6 -27 -7 33 -14 79 -9 93 -16 46 -23 -19
-3 -59 -9 -89 -14 l-55 -9 45 -3 c25 -1 59 -5 75 -9 26 -6 27 -8 10 -13 -11
-4 -51 -10 -90 -14 -80 -8 -77 -10 19 -19 84 -8 72 -20 -33 -31 l-76 -8 75 -8
c81 -10 85 -11 75 -27 -3 -6 -42 -12 -88 -12 l-82 -2 77 -11 c100 -14 92 -30
-22 -43 l-85 -10 78 -2 c59 -1 77 -4 77 -15 0 -11 -23 -16 -87 -22 l-88 -8 80
-11 c90 -13 84 -20 -25 -33 l-75 -9 73 -8 c39 -4 72 -11 72 -15 0 -7 -76 -19
-140 -21 l-35 -1 40 -9 c22 -4 59 -8 83 -8 23 -1 42 -5 42 -10 0 -9 -80 -21
-139 -21 -63 0 -25 -10 95 -25 162 -20 360 -20 371 0 7 12 19 13 78 4 39 -6
130 -13 204 -16 202 -7 230 8 307 170 38 81 48 147 26 169 -8 8 -46 14 -97 17
-47 1 -85 5 -85 8 0 10 24 48 34 55 6 4 53 8 103 8 l93 0 15 35 c8 19 22 51
31 71 l15 37 -210 -7 c-210 -7 -328 -22 -211 -26 30 -1 69 -5 85 -9 l30 -7
-40 -7 c-22 -4 -60 -7 -85 -7 -63 0 -91 -19 -30 -20 25 -1 63 -5 85 -9 l40 -7
-40 -7 c-22 -3 -66 -9 -98 -12 l-58 -7 16 39 c9 21 21 48 26 61 l9 22 -148 -1
c-81 -1 -191 -5 -246 -10z m459 -128 l40 -7 -30 -7 c-16 -3 -61 -9 -100 -13
-81 -8 -78 -10 29 -19 98 -9 83 -20 -39 -31 l-90 -7 82 -13 c118 -17 119 -20
8 -29 l-100 -8 75 -13 c41 -8 82 -15 90 -17 8 -2 -32 -9 -90 -17 l-105 -14 60
-7 c33 -4 124 -9 202 -11 133 -3 143 -4 143 -22 0 -11 -7 -28 -17 -38 -15 -17
-38 -18 -325 -18 -246 0 -310 3 -314 13 -6 16 88 231 112 258 14 15 35 19 133
22 64 1 134 3 156 4 22 1 58 -2 80 -6z m-106 -317 c10 -9 -10 -14 -86 -20 -81
-7 -82 -6 -76 15 5 21 9 21 82 15 42 -4 78 -8 80 -10z m-20 -50 c2 -2 2 -6 0
-9 -7 -7 -169 -19 -169 -12 0 3 3 13 6 21 5 14 18 16 83 10 42 -4 78 -8 80
-10z"/>
<path d="M4240 3687 c0 -10 -12 -12 -50 -7 -28 4 -52 5 -54 2 -6 -6 28 -62 38
-62 4 0 6 10 3 21 -5 20 -3 21 39 15 42 -5 44 -4 44 19 0 14 -4 25 -10 25 -5
0 -10 -6 -10 -13z"/>
<path d="M5760 3669 c0 -5 7 -9 15 -9 8 0 15 -7 15 -15 0 -9 -9 -15 -25 -15
-18 0 -25 5 -25 20 0 11 -4 20 -10 20 -5 0 -10 -13 -10 -29 0 -43 11 -91 21
-91 5 0 8 6 7 13 -4 16 34 10 48 -9 6 -7 14 -11 18 -7 11 11 -26 43 -51 43
-36 0 -23 24 15 28 47 5 42 51 -5 58 -7 1 -13 -2 -13 -7z"/>
<path d="M4293 3663 c-7 -2 -13 -11 -13 -19 0 -12 4 -12 20 -4 32 17 26 37 -7
23z"/>
<path d="M5640 3635 c0 -14 -4 -25 -10 -25 -5 0 -10 -4 -10 -10 0 -5 7 -10 16
-10 13 0 14 -9 9 -55 l-7 -55 34 0 c68 0 157 13 152 22 -3 5 -14 6 -25 3 -15
-5 -17 -3 -12 10 8 23 -15 35 -44 24 -31 -12 -83 -12 -83 0 0 5 6 12 13 14 10
4 10 6 0 6 -15 1 -18 77 -4 86 6 3 13 -15 16 -40 9 -57 22 -59 17 -2 -5 44
-15 57 -44 57 -13 0 -18 -8 -18 -25z m130 -119 c0 -10 -16 -15 -55 -18 -40 -2
-55 1 -55 10 0 8 8 10 24 6 14 -3 33 -1 43 5 25 15 43 13 43 -3z"/>
<path d="M4230 3604 c0 -26 -1 -26 -55 -22 -41 4 -55 1 -55 -9 0 -9 16 -13 56
-13 l56 0 -4 -30 c-3 -20 0 -30 9 -30 7 0 13 11 13 25 0 22 4 25 35 25 44 0
46 18 3 22 -29 3 -33 7 -33 31 1 15 -5 27 -12 27 -7 0 -13 -11 -13 -26z"/>
<path d="M4275 3414 c12 -9 19 -24 17 -36 -2 -12 0 -18 7 -14 6 4 11 0 11 -8
0 -33 -20 -24 -30 15 -8 30 -15 39 -27 35 -8 -3 -25 -9 -38 -12 -13 -3 -26
-13 -28 -22 -4 -14 -6 -12 -12 6 -4 12 -11 22 -15 22 -5 0 -6 -10 -2 -22 5
-21 4 -22 -11 -9 -10 8 -17 9 -17 3 0 -6 9 -17 20 -25 28 -20 44 -66 25 -73
-21 -8 -19 -26 3 -22 11 2 18 -4 20 -19 2 -13 7 -23 12 -23 5 0 7 15 4 33 -4
25 -3 28 5 15 9 -14 17 -14 48 -5 21 6 39 12 41 12 1 1 -2 14 -7 29 -9 21 -8
26 5 26 11 0 13 -6 9 -20 -4 -11 -2 -20 4 -20 6 0 11 -7 11 -15 0 -8 3 -15 8
-15 4 0 7 18 7 40 0 26 -4 40 -12 40 -7 0 -14 12 -15 28 0 15 -2 33 -2 40 -1
15 -25 32 -46 32 -11 -1 -10 -4 5 -16z m-1 -70 c4 -19 10 -43 13 -51 4 -10 2
-14 -4 -10 -6 4 -14 23 -17 43 -4 19 -10 43 -13 51 -4 10 -2 14 4 10 6 -4 14
-23 17 -43z m-24 -5 c6 -22 13 -46 16 -52 2 -7 -4 -13 -15 -14 -15 -1 -22 9
-30 44 -16 62 -6 66 13 6 14 -44 15 -16 0 35 -3 12 -4 22 -1 22 4 0 11 -18 17
-41z m-40 -37 c0 -21 -2 -24 -10 -12 -13 20 -13 53 0 45 6 -3 10 -18 10 -33z"/>
<path d="M5654 3385 c-5 -11 -10 -13 -19 -5 -19 16 -27 -1 -9 -21 17 -19 10
-90 -10 -88 -23 3 -36 -1 -36 -12 0 -6 9 -9 20 -6 17 4 20 2 15 -14 -5 -16 -2
-19 22 -18 23 0 25 2 12 11 -14 10 -14 17 4 79 14 48 24 66 33 62 8 -3 14 -1
14 5 0 5 -7 13 -16 16 -22 8 -24 8 -30 -9z"/>
<path d="M5737 3373 c-4 -3 -7 -17 -7 -29 0 -30 -18 -40 -22 -12 -6 40 -24 29
-36 -23 -14 -61 -15 -69 -3 -69 5 0 12 19 16 43 7 42 7 42 17 14 7 -19 6 -38
-1 -59 -6 -18 -7 -36 -3 -40 5 -5 15 11 22 37 13 45 37 58 33 16 -2 -11 2 -21
7 -21 13 0 26 53 14 57 -31 11 -36 21 -26 57 10 33 5 45 -11 29z"/>
<path d="M4712 3335 c-46 -13 -115 -27 -154 -31 -54 -5 -75 -12 -93 -30 l-24
-24 65 0 c36 0 120 7 187 16 163 21 247 6 247 -46 0 -17 7 -20 40 -20 33 0 40
3 40 20 0 51 90 67 250 46 63 -9 145 -16 182 -16 l67 0 -27 28 c-23 23 -36 27
-92 29 -35 2 -105 14 -156 28 -50 14 -115 25 -144 25 -44 0 -56 -4 -81 -29
-16 -16 -29 -38 -29 -48 0 -13 -5 -9 -19 13 -11 18 -30 39 -42 48 -33 23 -117
19 -217 -9z"/>
<path d="M5600 3320 c-8 -5 -12 -12 -9 -15 8 -8 39 5 39 16 0 11 -11 11 -30
-1z"/>
<path d="M4353 3173 c4 -19 1 -23 -21 -24 -15 -1 -30 -1 -34 -1 -3 1 -12 -6
-19 -14 -11 -13 -9 -14 17 -8 l29 7 -34 -24 c-19 -13 -37 -30 -39 -38 -3 -7
17 1 43 19 33 23 46 28 42 17 -3 -10 -2 -17 3 -17 6 0 10 9 10 19 0 23 16 36
25 21 9 -15 25 -2 19 15 -4 8 1 18 10 21 9 3 13 10 10 15 -3 5 -13 5 -23 -1
-12 -6 -22 -5 -31 3 -10 10 -12 8 -7 -10z"/>
<path d="M5566 3151 c-3 -4 -17 -6 -31 -3 -15 2 -25 0 -25 -7 0 -6 10 -11 22
-11 21 0 21 -1 6 -17 -14 -14 -20 -14 -33 -3 -8 7 -19 10 -23 6 -4 -4 2 -14
12 -22 19 -14 19 -14 -2 -44 -32 -43 -26 -61 8 -21 l28 33 11 -38 c6 -22 11
-49 11 -61 0 -13 5 -23 11 -23 12 0 8 58 -7 95 -6 16 1 13 33 -13 43 -34 53
-38 53 -22 0 5 -19 23 -42 40 l-41 30 41 0 c44 0 72 8 72 20 0 5 -28 6 -62 3
l-62 -6 22 30 c12 17 22 34 22 37 0 9 -18 7 -24 -3z"/>
<path d="M4366 3094 c-26 -19 -59 -34 -72 -34 -13 0 -24 -5 -24 -11 0 -20 67
-2 114 30 39 27 45 29 51 14 3 -10 0 -22 -8 -28 -8 -5 -36 -25 -61 -43 -40
-28 -45 -35 -36 -52 8 -15 15 -17 32 -11 12 4 24 14 26 20 3 10 0 10 -17 2
-13 -7 -21 -8 -21 -2 0 6 27 29 60 51 l60 41 -17 30 c-9 16 -22 29 -28 28 -5
-1 -32 -16 -59 -35z"/>
<path d="M4536 2984 c6 -23 4 -25 -15 -19 -22 7 -31 -10 -8 -18 6 -2 -3 -11
-20 -21 -18 -9 -33 -21 -33 -27 0 -6 8 -5 22 2 l21 11 -21 -30 c-24 -33 -27
-42 -13 -42 5 0 18 15 30 33 11 17 21 26 21 20 0 -7 5 -13 11 -13 7 0 9 10 5
26 -6 22 -4 25 14 19 11 -3 20 -2 20 3 0 6 -5 12 -12 14 -6 2 -8 10 -4 17 5 7
14 10 22 7 30 -12 21 12 -12 27 l-34 17 6 -26z"/>
<path d="M5335 2960 c3 -11 2 -20 -4 -20 -5 0 -17 -8 -26 -17 -14 -14 -21 -14
-37 -4 -17 10 -19 10 -16 -6 1 -10 -1 -24 -5 -30 -6 -9 -2 -13 11 -13 22 0 37
-26 21 -35 -13 -9 -1 -25 15 -19 7 3 17 -6 24 -20 8 -18 8 -26 -1 -29 -7 -2
-7 -6 -1 -10 5 -3 16 -2 24 3 13 8 12 13 -3 39 -9 16 -14 36 -11 45 4 10 1 16
-9 16 -36 0 -30 41 8 58 32 15 46 -5 19 -25 -20 -15 -18 -18 32 -48 16 -10 16
-12 -1 -38 -21 -33 -3 -36 22 -3 11 13 33 27 51 31 18 3 32 11 32 17 0 5 -12
7 -28 3 -27 -6 -28 -4 -24 24 2 17 1 38 -2 47 -5 13 -9 14 -22 4 -12 -11 -17
-11 -27 0 -7 8 -8 14 -2 16 23 9 39 23 33 29 -3 4 -17 1 -29 -6 -17 -9 -24 -9
-27 0 -2 6 -8 11 -14 11 -5 0 -6 -9 -3 -20z m72 -97 c-8 -7 -47 7 -47 16 0 4
10 13 23 18 18 9 23 7 25 -9 2 -11 1 -22 -1 -25z"/>
<path d="M4600 2941 c0 -19 12 -41 20 -36 10 6 1 45 -11 45 -5 0 -9 -4 -9 -9z"/>
<path d="M4625 2890 c-16 -28 -32 -50 -35 -50 -3 0 -14 7 -24 15 -11 8 -26 15
-33 15 -23 0 -14 -17 17 -30 34 -14 34 -14 18 -40 -18 -28 -1 -38 18 -11 9 12
22 20 30 17 16 -6 19 10 4 19 -6 4 2 24 20 50 16 24 30 48 30 54 0 23 -16 9
-45 -39z"/>
<path d="M4567 2891 c3 -12 10 -21 15 -21 13 0 6 32 -9 37 -7 3 -9 -3 -6 -16z"/>
<path d="M4762 2879 c2 -7 10 -15 17 -17 8 -3 12 1 9 9 -2 7 -10 15 -17 17 -8
3 -12 -1 -9 -9z"/>
<path d="M4820 2865 c0 -8 7 -15 15 -15 9 0 12 6 9 15 -4 8 -10 15 -15 15 -5
0 -9 -7 -9 -15z"/>
<path d="M4869 2854 c-10 -12 -23 -14 -57 -9 -25 4 -50 9 -57 11 -7 3 -15 -4
-18 -15 -6 -24 8 -38 16 -17 4 11 16 12 54 5 79 -14 94 -19 88 -29 -3 -5 -1
-11 5 -15 5 -3 10 -2 10 4 0 5 3 16 6 25 5 12 0 16 -17 16 -22 1 -23 2 -7 14
10 7 15 16 11 19 -10 11 -20 8 -34 -9z"/>
<path d="M5020 2819 c0 -50 1 -51 25 -45 14 4 45 9 70 13 l45 6 0 -37 c0 -33
-3 -37 -30 -42 -16 -4 -30 -10 -30 -15 0 -12 23 -11 55 1 24 9 26 14 23 62 -2
29 -7 52 -13 51 -91 -14 -127 -15 -123 -2 2 7 32 18 66 24 59 11 81 20 71 29
-4 4 -38 -1 -116 -19 -16 -4 -23 -1 -23 10 0 8 -4 15 -10 15 -5 0 -10 -23 -10
-51z"/>
<path d="M4760 2808 c0 -8 21 -14 70 -21 l25 -3 -26 -11 c-17 -8 -40 -8 -65
-3 -21 5 -41 7 -43 4 -9 -9 23 -24 50 -24 30 0 39 -7 33 -25 -3 -7 -14 -11
-25 -8 -10 3 -19 0 -19 -6 0 -6 4 -11 9 -11 5 0 16 -3 25 -6 11 -4 19 2 25 19
9 23 14 25 50 20 26 -4 41 -2 41 5 0 6 -17 13 -37 15 -33 3 -35 5 -15 12 40
14 24 32 -38 42 -33 5 -60 6 -60 1z"/>
<path d="M5071 2753 c-36 -7 -67 -16 -70 -18 -12 -12 10 -13 72 -3 44 7 67 16
67 24 0 8 -1 13 -2 13 -2 -1 -32 -8 -67 -16z"/>
<path d="M3766 4635 c-54 -50 -80 -147 -57 -208 5 -13 25 -34 45 -46 19 -12
49 -44 65 -71 21 -33 38 -50 51 -50 11 0 20 4 20 9 0 5 9 11 19 14 11 2 31 23
45 46 20 30 33 41 52 41 19 0 28 8 40 37 10 22 12 43 7 53 -4 9 -52 58 -105
108 -108 103 -134 112 -182 67z m74 -12 c14 -9 30 -22 35 -28 6 -6 29 -26 53
-44 46 -35 85 -100 76 -124 -3 -8 -14 -17 -25 -20 -10 -3 -19 -12 -19 -21 0
-9 -7 -16 -15 -16 -8 0 -14 -3 -13 -7 4 -14 -21 -50 -38 -57 -17 -7 -78 50
-103 98 -12 22 -12 30 -1 51 20 37 32 30 28 -17 -3 -40 -1 -43 22 -43 15 0 28
-7 32 -18 21 -52 66 16 67 100 1 40 -1 43 -24 41 -13 -1 -27 -8 -29 -15 -8
-20 -44 -15 -56 7 -6 11 -19 20 -30 20 -15 0 -21 -9 -26 -40 -7 -44 -19 -52
-29 -19 -14 44 -7 90 20 130 31 44 40 46 75 22z m75 -143 c3 -5 2 -10 -4 -10
-5 0 -13 5 -16 10 -3 6 -2 10 4 10 5 0 13 -4 16 -10z"/>
<path d="M6171 4562 c-17 -33 -69 -65 -94 -58 -12 3 -29 17 -38 32 -17 27 -17
27 -24 5 -4 -15 -1 -29 10 -41 33 -37 -13 -55 -60 -24 -23 15 -25 15 -31 0 -8
-22 13 -46 42 -46 13 0 44 5 69 12 43 12 46 11 90 -20 25 -18 50 -32 55 -32
13 0 13 27 0 35 -5 3 -10 16 -11 28 0 12 -3 16 -6 10 -6 -17 -28 -16 -42 1 -9
10 -4 18 24 37 38 26 53 55 37 71 -7 7 -14 3 -21 -10z"/>
<path d="M6020 4381 c0 -17 -4 -33 -10 -36 -16 -10 -11 -42 7 -49 32 -13 55
50 37 98 -11 28 -34 18 -34 -13z"/>
<path d="M3553 4208 c-6 -7 -13 -31 -15 -53 -3 -39 -4 -40 -38 -37 -28 2 -42
-4 -63 -26 l-27 -29 55 -18 c49 -17 55 -22 55 -48 0 -15 5 -37 10 -48 9 -15 7
-21 -6 -26 -14 -5 -13 -8 7 -19 38 -21 77 -17 103 11 13 14 31 25 40 25 9 0
16 5 16 10 0 6 10 10 23 9 12 -1 35 -1 51 -1 l29 2 -29 26 c-15 15 -39 30 -53
34 -26 6 -40 40 -44 104 -2 29 -27 51 -27 23 0 -8 -6 -20 -14 -27 -12 -9 -17
-5 -25 27 -15 55 -34 79 -48 61z m37 -94 c13 -39 9 -50 -15 -41 -9 4 -15 19
-15 42 0 45 15 45 30 -1z m25 -124 c15 -6 25 -15 23 -22 -6 -18 -48 -16 -59 3
-17 32 -9 36 36 19z"/>
<path d="M6425 4200 c-13 -15 -15 -24 -8 -31 13 -13 39 -1 67 30 19 21 19 21
-11 21 -17 0 -38 -8 -48 -20z"/>
<path d="M6254 4125 c-20 -31 -11 -65 16 -58 11 3 20 12 20 20 0 11 7 14 28 9
42 -10 77 -40 80 -69 4 -35 -17 -35 -58 -1 -29 25 -57 27 -32 2 9 -9 5 -15
-18 -25 -27 -11 -33 -10 -55 9 -14 12 -25 27 -25 34 0 18 -27 37 -35 25 -6
-11 21 -71 33 -71 4 0 13 -9 20 -20 11 -17 10 -20 -7 -20 -27 0 -51 26 -59 64
l-6 31 -6 -30 c-7 -34 11 -79 35 -89 9 -3 27 -3 40 0 17 4 29 -1 46 -20 23
-27 49 -35 49 -15 0 6 -12 25 -27 43 l-26 31 49 6 c37 5 53 2 67 -10 17 -14
20 -14 33 4 17 23 18 67 2 83 -25 25 9 11 44 -18 39 -32 68 -32 68 1 0 10 -11
26 -25 35 -17 11 -25 25 -25 45 0 34 -10 37 -28 8 -11 -18 -11 -24 3 -38 15
-17 13 -17 -35 -1 -28 9 -54 20 -58 24 -9 9 -71 36 -83 36 -5 0 -16 -11 -25
-25z"/>
<path d="M3452 3644 c-2 -34 1 -45 17 -53 26 -15 42 -7 70 35 25 36 53 42 59
13 2 -9 -4 -23 -12 -32 -13 -12 -13 -16 -2 -20 9 -4 16 4 20 24 7 37 -1 57
-27 65 -16 5 -29 -3 -57 -36 -22 -26 -41 -40 -48 -36 -18 11 -14 54 4 64 15 8
14 10 -2 14 -16 4 -19 -2 -22 -38z"/>
<path d="M3460 3542 c-24 -20 -22 -55 5 -66 12 -4 13 -2 3 14 -15 24 5 50 39
50 25 0 45 -31 25 -38 -7 -2 -12 -11 -12 -19 0 -13 3 -13 15 -3 22 18 18 46
-7 64 -29 20 -41 20 -68 -2z"/>
<path d="M6341 3509 c-3 -56 27 -89 80 -89 67 0 104 76 57 116 -23 19 -23 19
-5 -2 22 -27 22 -49 -3 -74 -41 -41 -120 -14 -120 40 0 17 7 33 18 39 15 10
15 10 -4 11 -17 0 -21 -7 -23 -41z"/>
<path d="M3591 3464 c-1 -7 -30 -15 -71 -19 -75 -8 -99 -27 -27 -23 36 3 42 0
42 -17 0 -17 -7 -20 -43 -20 -32 0 -42 -4 -42 -16 0 -14 6 -15 48 -7 58 12 67
20 53 46 -10 19 -8 21 23 24 29 3 32 6 25 23 -4 11 -8 15 -8 9z"/>
<path d="M6335 3373 c-3 -21 -7 -48 -9 -60 -3 -20 20 -40 32 -28 3 3 0 5 -6 5
-7 0 -12 12 -12 26 0 20 4 25 16 20 9 -3 33 -6 54 -6 22 0 45 -7 54 -16 14
-13 16 -13 16 -1 0 9 2 21 3 29 2 7 2 9 -1 5 -2 -4 -20 -5 -40 -2 -21 3 -51 8
-69 11 -25 4 -31 8 -26 22 4 9 11 20 17 24 7 5 4 8 -6 8 -12 0 -19 -11 -23
-37z"/>
<path d="M3489 3326 c-27 -13 -37 -50 -19 -72 16 -19 65 -18 84 2 42 41 -10
98 -65 70z m61 -16 c25 -16 -1 -45 -44 -48 -31 -3 -36 0 -36 18 0 30 50 49 80
30z"/>
<path d="M6314 3234 c-3 -19 -4 -41 0 -49 9 -25 50 -17 81 15 31 33 53 38 61
16 9 -22 -14 -56 -39 -57 -20 -1 -20 -1 3 -8 21 -6 27 -3 38 23 30 69 -30 102
-83 46 -37 -38 -57 -39 -53 -3 2 19 10 29 28 33 l25 6 -27 6 c-25 5 -28 2 -34
-28z"/>
<path d="M3496 3201 c-23 -25 -17 -52 15 -70 24 -13 29 -13 53 2 28 19 35 54
14 75 -18 18 -63 14 -82 -7z m68 3 c41 -16 1 -69 -47 -62 -33 5 -33 34 0 52
34 18 28 17 47 10z"/>
<path d="M6290 3143 c0 -5 27 -16 60 -26 48 -14 61 -22 66 -42 7 -29 -10 -55
-37 -55 -10 0 -41 8 -68 19 -45 17 -50 17 -54 2 -2 -11 3 -16 17 -17 12 0 43
-7 70 -15 46 -13 49 -13 67 10 22 27 25 64 7 79 -10 8 -116 52 -125 52 -2 0
-3 -3 -3 -7z"/>
<path d="M3640 3122 c0 -5 -29 -18 -65 -27 -36 -10 -65 -23 -65 -30 0 -8 24
-4 73 12 39 13 76 25 81 26 4 2 1 9 -8 16 -9 7 -16 9 -16 3z"/>
<path d="M3570 2978 c-24 -26 -25 -41 -4 -62 33 -34 94 -12 94 34 0 49 -54 66
-90 28z m78 -20 c-2 -12 -15 -29 -30 -38 -25 -13 -29 -13 -44 2 -15 15 -15 17
5 37 12 12 33 21 47 21 21 0 25 -4 22 -22z"/>
<path d="M6270 2941 c0 -4 11 -18 25 -31 35 -33 31 -43 -14 -37 -26 3 -41 1
-44 -7 -4 -9 9 -11 49 -8 64 5 87 -8 77 -46 -4 -17 -2 -23 6 -18 22 14 10 40
-44 97 -30 32 -55 54 -55 50z"/>
<path d="M3675 2898 c6 -16 -60 -52 -76 -43 -5 4 -4 -6 3 -21 8 -18 14 -22 16
-13 3 15 100 69 123 69 6 0 9 -9 6 -20 -3 -11 -1 -20 5 -20 5 0 8 10 6 23 -2
17 -10 22 -33 23 -17 0 -36 4 -43 8 -7 4 -10 2 -7 -6z"/>
<path d="M6211 2816 c-34 -36 -10 -87 33 -70 31 12 30 74 0 74 -8 0 -12 5 -9
10 11 18 -1 11 -24 -14z m34 -19 c19 -15 13 -37 -9 -37 -18 0 -39 27 -31 40 8
13 17 13 40 -3z"/>
<path d="M3724 2786 c-47 -21 -61 -87 -26 -119 26 -24 36 -21 12 3 -28 28 -25
54 11 84 40 34 74 34 96 0 13 -21 14 -30 4 -46 -11 -17 -10 -18 9 -8 19 10 19
13 6 39 -27 51 -65 67 -112 47z"/>
<path d="M6279 2761 l-25 -29 24 -23 24 -23 20 24 c22 27 21 73 -2 78 -8 1
-27 -11 -41 -27z m51 -5 c0 -29 -26 -54 -41 -39 -8 8 -6 19 6 37 21 32 35 33
35 2z"/>
<path d="M6146 2714 c-33 -32 -5 -84 45 -84 49 0 65 44 29 80 -24 24 -53 26
-74 4z m65 -22 c31 -26 20 -57 -19 -47 -35 8 -56 29 -49 49 8 21 40 20 68 -2z"/>
<path d="M6040 2654 c0 -8 4 -13 8 -10 5 3 34 -15 64 -39 43 -33 58 -40 62
-29 3 7 1 14 -5 14 -5 0 -32 18 -60 40 -55 43 -69 48 -69 24z"/>
<path d="M3776 2634 c-19 -18 -21 -55 -4 -72 29 -29 88 1 88 44 0 42 -53 60
-84 28z m71 -10 c8 -21 -40 -69 -61 -61 -22 9 -20 33 4 57 24 24 48 26 57 4z"/>
<path d="M3857 2543 c-16 -18 -34 -30 -40 -26 -7 3 -3 -3 7 -15 19 -22 32 -30
22 -14 -3 5 7 21 22 35 24 23 31 25 46 14 17 -12 16 -15 -17 -44 -24 -21 -32
-34 -25 -41 7 -7 18 -1 35 19 26 30 47 37 59 18 8 -14 -46 -70 -60 -62 -6 4
-5 -1 3 -10 13 -16 16 -15 47 17 35 36 37 61 4 71 -10 3 -20 15 -23 25 -3 11
-13 20 -22 20 -9 0 -14 4 -11 9 3 5 0 11 -7 13 -6 3 -25 -10 -40 -29z"/>
<path d="M6032 2568 c-30 -30 -2 -88 42 -88 28 0 46 18 46 46 0 44 -58 72 -88
42z m56 -14 c23 -16 30 -48 12 -59 -16 -10 -70 24 -70 44 0 34 22 40 58 15z"/>
<path d="M5953 2480 c-3 -11 -9 -18 -13 -15 -4 3 -10 -2 -14 -10 -3 -9 0 -15
8 -15 16 0 52 -50 47 -65 -1 -5 7 -1 18 9 21 19 28 32 13 22 -5 -3 -21 7 -35
22 -23 24 -25 31 -14 46 12 17 15 16 44 -17 21 -24 34 -32 41 -25 7 7 0 19
-23 39 -38 34 -65 37 -72 9z"/>
<path d="M4005 2450 c3 -5 -16 -32 -43 -60 -34 -35 -45 -53 -37 -60 7 -6 15
-2 23 11 12 18 14 18 38 3 24 -16 27 -16 52 3 34 26 41 69 13 78 -12 3 -21 10
-21 15 0 4 -7 11 -16 14 -8 3 -12 2 -9 -4z m43 -52 c4 -22 -33 -59 -53 -52
-20 8 -19 33 2 56 20 22 46 20 51 -4z"/>
<path d="M5809 2431 c-3 -7 13 -31 34 -53 21 -22 42 -49 46 -59 6 -18 8 -18
26 -3 11 8 15 13 8 10 -6 -4 -22 8 -34 26 -39 55 -76 92 -80 79z"/>
<path d="M5870 2411 c0 -5 8 -8 17 -7 9 0 26 -13 38 -31 12 -17 27 -28 33 -25
15 10 -43 72 -68 72 -11 0 -20 -4 -20 -9z"/>
<path d="M4092 2386 c4 -5 -4 -27 -17 -50 -25 -43 -21 -66 12 -66 7 0 13 -4
13 -10 0 -5 7 -10 16 -10 8 0 13 4 10 9 -3 4 6 23 19 41 24 32 25 50 3 50 -6
0 -8 -3 -5 -6 9 -10 -32 -64 -48 -64 -26 0 -27 21 -1 54 24 32 24 35 8 47 -9
7 -14 10 -10 5z"/>
<path d="M5788 2348 c-26 -21 -28 -45 -7 -72 32 -40 80 -29 78 19 0 19 -1 19
-9 -2 -10 -25 -22 -28 -51 -13 -26 14 -27 63 -1 58 11 -2 20 1 21 7 4 15 -13
17 -31 3z"/>
<path d="M4205 2320 c-11 -5 -17 -9 -12 -9 4 -1 -4 -19 -19 -40 -27 -41 -25
-61 4 -61 13 0 14 2 4 9 -10 6 -9 15 8 44 12 21 25 35 29 33 4 -3 7 4 7 15 0
10 0 19 -1 18 0 0 -9 -4 -20 -9z"/>
<path d="M5583 2282 c-29 -14 -53 -30 -53 -34 0 -5 11 -1 24 8 25 16 25 15 55
-44 17 -33 27 -62 24 -66 -9 -9 10 -7 26 3 9 6 10 11 2 15 -18 12 -63 108 -54
116 4 5 17 10 28 12 11 2 16 6 10 10 -5 3 -34 -6 -62 -20z"/>
<path d="M5692 2288 c-27 -27 2 -98 41 -98 17 0 37 21 37 39 0 11 -4 10 -14
-5 -12 -15 -19 -17 -32 -8 -27 16 -27 29 1 44 14 7 24 18 22 24 -5 16 -40 19
-55 4z m33 -7 c3 -6 -4 -15 -15 -21 -16 -8 -20 -8 -20 3 0 25 23 36 35 18z"/>
<path d="M4244 2262 c-44 -29 -34 -92 14 -91 25 0 26 1 6 9 -31 12 -38 29 -23
56 14 27 49 33 49 8 0 -11 -6 -14 -17 -10 -15 5 -15 4 1 -9 26 -20 36 -19 36
3 0 34 -38 53 -66 34z"/>
<path d="M5449 2224 c-8 -10 -9 -15 -3 -11 7 4 15 -1 19 -10 3 -10 1 -19 -5
-21 -36 -12 -54 -74 -28 -100 13 -13 51 -16 62 -4 4 4 12 8 17 8 20 3 21 4 12
17 -6 6 -18 37 -28 67 -22 68 -28 75 -46 54z m37 -90 c10 -25 12 -40 5 -47
-26 -26 -74 40 -50 69 18 22 29 17 45 -22z"/>
<path d="M4332 2223 c5 -14 -24 -73 -36 -73 -6 0 -4 -5 4 -10 17 -11 37 -14
27 -4 -3 4 1 21 10 38 22 41 24 56 7 56 -8 0 -13 -3 -12 -7z"/>
<path d="M4372 2211 c2 -7 7 -12 11 -12 12 1 9 15 -3 20 -7 2 -11 -2 -8 -8z"/>
<path d="M4467 2213 c-14 -14 -6 -47 19 -80 26 -34 26 -63 1 -63 -20 0 -45 23
-49 45 -3 16 -5 15 -10 -7 -3 -15 -2 -26 1 -25 3 1 17 -5 30 -12 18 -10 29
-10 47 -2 31 14 30 42 -1 79 -14 17 -25 37 -25 47 0 25 42 15 57 -15 12 -24
13 -24 13 -3 0 32 -61 58 -83 36z"/>
<path d="M4690 2160 c0 -5 5 -10 10 -10 6 0 10 5 10 10 0 6 -4 10 -10 10 -5 0
-10 -4 -10 -10z"/>
<path d="M4584 2132 c-19 -13 -35 -52 -29 -72 8 -24 39 -35 62 -20 16 10 16
11 1 6 -19 -6 -48 18 -48 38 0 24 27 49 44 43 10 -4 15 -11 11 -16 -3 -5 -1
-12 4 -15 17 -11 22 12 5 28 -17 17 -33 20 -50 8z"/>
<path d="M5336 2131 c-4 -6 -13 -8 -20 -5 -8 3 -17 1 -21 -5 -3 -6 -2 -11 3
-11 10 0 33 -70 27 -81 -3 -4 3 -5 14 -2 17 4 17 7 4 34 -16 32 -14 60 4 66
14 5 32 -26 35 -60 2 -18 7 -23 21 -19 10 3 14 8 9 11 -6 3 -14 22 -19 41 -9
35 -43 54 -57 31z"/>
<path d="M4676 2078 c-4 -23 -11 -47 -16 -53 -6 -7 0 -11 18 -12 15 -1 22 1
16 3 -8 3 -9 18 -3 47 11 55 11 57 0 57 -5 0 -11 -19 -15 -42z"/>
<path d="M5215 2106 c-11 -8 -17 -18 -12 -22 4 -4 13 1 21 11 13 19 38 13 35
-8 -4 -24 14 -67 27 -67 10 0 12 5 5 18 -5 9 -13 30 -18 47 -10 34 -30 42 -58
21z"/>
<path d="M4740 2090 c-22 -22 -25 -42 -10 -71 13 -23 53 -25 71 -2 13 15 12
15 -8 3 -27 -17 -53 0 -53 35 0 26 24 50 40 40 17 -10 11 -23 -12 -28 -17 -3
-14 -5 10 -6 37 -1 45 22 13 39 -26 13 -28 13 -51 -10z"/>
<path d="M5066 2084 c-31 -30 -12 -94 27 -94 23 0 47 17 47 32 0 5 -8 3 -19
-3 -22 -14 -51 -6 -51 15 0 8 8 17 18 19 16 4 16 5 0 6 -20 1 -24 16 -6 27 6
4 17 -1 24 -11 7 -9 18 -15 25 -13 8 3 6 9 -5 21 -22 21 -40 22 -60 1z"/>
<path d="M4838 2048 c3 -27 0 -43 -9 -49 -11 -7 -9 -9 6 -9 17 0 21 7 23 37 3
44 8 53 29 53 12 0 14 -10 11 -45 -3 -39 5 -55 26 -55 1 0 -1 24 -4 53 l-5 52
-40 2 -40 2 3 -41z"/>
<path d="M4962 2078 c-17 -17 -15 -73 3 -88 12 -10 21 -10 40 -2 14 7 25 16
25 22 0 6 -8 5 -21 -2 -17 -11 -22 -10 -35 7 -8 11 -13 29 -12 40 3 23 37 33
49 14 4 -7 11 -10 14 -7 12 12 -5 28 -29 28 -12 0 -27 -5 -34 -12z"/>
<path d="M5220 2055 c-7 -8 -10 -22 -6 -30 6 -16 46 -21 46 -5 0 5 -7 7 -16 3
-14 -5 -16 -1 -12 20 6 31 5 32 -12 12z"/>
<path d="M4380 1100 c0 -253 4 -390 10 -390 6 0 10 137 10 390 0 253 -4 390
-10 390 -6 0 -10 -137 -10 -390z"/>
<path d="M4900 1470 c-17 -5 -19 -8 -7 -9 15 -1 17 -14 17 -125 0 -110 -2
-125 -17 -129 -10 -3 5 -5 32 -5 28 0 44 2 38 5 -9 3 -13 26 -13 64 0 53 2 61
25 71 38 17 55 -4 55 -68 0 -40 -4 -56 -17 -63 -14 -8 -7 -10 32 -10 39 0 46
2 33 10 -14 8 -18 24 -18 72 0 36 -5 68 -12 75 -17 17 -63 15 -78 -3 -22 -26
-25 -17 -22 55 4 75 3 76 -48 60z"/>
<path d="M5536 1471 c-18 -7 -18 -8 -3 -14 15 -5 17 -23 17 -126 0 -105 -2
-120 -17 -124 -10 -3 5 -5 32 -5 28 0 42 2 33 5 -16 4 -18 19 -18 139 0 140
-1 142 -44 125z"/>
<path d="M5973 1465 c-13 -9 -25 -32 -29 -53 -4 -20 -12 -41 -18 -45 -8 -6 -7
-10 2 -14 8 -3 12 -28 12 -73 0 -45 -4 -70 -12 -73 -7 -3 12 -5 42 -5 30 0 45
3 33 5 -19 4 -22 12 -25 74 -3 66 -2 69 20 69 12 0 22 5 22 10 0 6 -9 10 -20
10 -17 0 -20 7 -20 44 0 49 19 66 45 40 9 -10 23 -13 33 -9 16 6 16 8 -2 21
-26 18 -56 18 -83 -1z"/>
<path d="M4538 1450 c-22 -13 -32 -64 -18 -90 7 -12 31 -30 55 -41 54 -24 69
-42 61 -74 -12 -49 -94 -38 -111 15 -10 33 -25 23 -18 -12 8 -43 18 -49 82
-46 45 3 57 7 74 29 33 45 17 80 -56 120 -65 36 -82 63 -51 86 27 20 52 16 80
-12 14 -14 27 -25 30 -25 9 0 -8 45 -20 52 -16 11 -88 9 -108 -2z"/>
<path d="M6188 1444 c-38 -20 -58 -63 -58 -125 0 -45 4 -55 34 -85 32 -32 38
-34 104 -34 76 0 76 0 86 44 l7 29 -29 -31 c-31 -33 -54 -39 -96 -22 -64 24
-90 147 -42 195 46 46 114 45 140 -3 14 -25 15 -25 16 -5 0 46 -9 53 -74 53
-34 -1 -73 -7 -88 -16z"/>
<path d="M2565 1406 c-97 -43 -122 -179 -50 -264 15 -18 77 -55 150 -91 139
-69 165 -94 165 -155 0 -108 -107 -166 -216 -117 -51 23 -78 57 -105 132 -12
33 -26 59 -30 59 -5 0 -9 -47 -9 -105 0 -58 4 -105 9 -105 5 0 14 14 21 30
l13 31 21 -20 c62 -58 183 -78 261 -42 80 36 112 100 103 201 -8 80 -40 111
-182 180 -142 68 -176 99 -176 162 0 81 84 122 174 84 39 -16 93 -79 101 -118
4 -15 13 -28 21 -28 11 0 14 18 14 85 0 69 -3 85 -15 85 -8 0 -15 -6 -15 -12
0 -7 -4 -19 -9 -27 -7 -11 -16 -8 -46 15 -31 24 -49 29 -104 31 -41 2 -78 -2
-96 -11z"/>
<path d="M3880 1411 c-46 -14 -105 -49 -131 -78 -93 -99 -124 -308 -63 -425
50 -96 148 -158 261 -166 90 -6 151 10 210 55 24 18 45 33 47 33 2 0 9 -13 16
-30 7 -16 16 -30 21 -30 5 0 9 52 9 115 0 70 -4 115 -10 115 -5 0 -10 -9 -10
-20 0 -28 -44 -121 -70 -149 -58 -60 -184 -80 -259 -41 -90 45 -135 144 -134
290 1 143 39 237 115 288 35 23 52 27 112 27 60 0 79 -4 119 -28 53 -31 101
-104 112 -169 13 -77 25 -35 25 88 0 93 -3 125 -12 122 -7 -3 -16 -20 -21 -39
-5 -19 -10 -35 -12 -37 -2 -2 -24 13 -49 32 -26 19 -63 40 -84 46 -42 11 -155
12 -192 1z"/>
<path d="M1660 1400 c0 -5 15 -10 33 -10 18 0 42 -6 53 -14 18 -13 19 -32 24
-258 6 -270 8 -281 76 -327 52 -36 103 -50 181 -51 122 0 221 52 253 135 7 18
14 119 17 245 6 235 10 253 63 265 62 14 26 25 -80 25 -106 0 -143 -11 -80
-23 16 -4 39 -16 50 -27 19 -19 20 -32 20 -229 0 -124 -4 -221 -11 -238 -47
-125 -258 -164 -352 -65 -39 41 -49 114 -45 339 3 179 5 196 22 209 11 8 35
14 53 14 18 0 33 5 33 10 0 6 -58 10 -155 10 -97 0 -155 -4 -155 -10z"/>
<path d="M2970 1329 c0 -92 15 -103 37 -27 21 73 48 88 154 88 l89 0 0 -274
c0 -167 -4 -285 -11 -304 -11 -31 -32 -42 -81 -42 -16 0 -28 -4 -28 -10 0 -6
62 -10 165 -10 156 0 214 11 124 23 -75 10 -74 2 -77 327 l-3 290 90 0 c81 0
92 -2 119 -25 17 -15 34 -43 42 -70 7 -25 17 -45 21 -45 5 0 9 36 9 80 l0 80
-325 0 -325 0 0 -81z"/>
<path d="M7379 1379 c-17 -18 -22 -29 -13 -29 9 0 14 -20 16 -72 l3 -73 34 0
c22 0 36 6 39 15 4 13 3 13 -11 2 -27 -22 -37 -4 -37 64 0 62 1 64 25 64 14 0
25 5 25 10 0 6 -11 10 -24 10 -16 0 -26 6 -28 19 -3 17 -6 16 -29 -10z"/>
<path d="M4757 1359 c-43 -25 -53 -102 -19 -141 15 -18 74 -24 106 -12 29 11
17 20 -23 16 -31 -3 -42 0 -55 19 -20 30 -21 83 0 103 20 20 43 20 50 1 6 -15
44 -21 44 -7 0 29 -66 42 -103 21z"/>
<path d="M5149 1357 c-45 -34 -48 -112 -6 -142 30 -21 90 -19 118 4 19 15 24
29 24 66 0 37 -5 51 -24 66 -26 22 -87 25 -112 6z m86 -27 c29 -56 13 -120
-30 -120 -45 0 -74 99 -39 134 24 25 52 19 69 -14z"/>
<path d="M5345 1345 c-55 -54 -19 -145 57 -145 55 0 88 32 88 85 0 35 -5 48
-26 64 -37 29 -89 27 -119 -4z m87 -2 c26 -29 32 -80 14 -108 -30 -46 -77 -23
-91 43 -13 61 41 106 77 65z"/>
<path d="M5743 1348 c-29 -33 -35 -57 -22 -95 29 -90 169 -63 169 32 0 50 -36
85 -88 85 -27 0 -44 -7 -59 -22z m91 -10 c19 -27 21 -99 4 -116 -7 -7 -22 -12
-35 -12 -43 0 -71 100 -37 134 22 22 50 20 68 -6z"/>
<path d="M6415 1345 c-31 -30 -33 -82 -4 -119 46 -58 150 -19 152 57 2 79 -92
119 -148 62z m88 -3 c26 -29 32 -78 13 -107 -33 -50 -86 -18 -89 53 -2 64 40
94 76 54z"/>
<path d="M6603 1356 c13 -10 17 -28 17 -74 0 -48 -4 -63 -17 -71 -14 -8 -6
-10 32 -10 28 1 42 3 33 6 -14 4 -18 15 -18 59 0 46 3 56 25 70 42 27 55 13
55 -60 0 -53 -3 -65 -17 -69 -10 -3 5 -5 32 -6 38 0 46 2 33 10 -26 15 -24 93
3 120 37 37 54 22 57 -53 2 -57 0 -67 -15 -71 -10 -3 4 -5 31 -6 42 -1 47 1
33 12 -12 9 -17 31 -19 82 -3 69 -4 70 -31 73 -16 2 -39 -3 -52 -12 -20 -13
-24 -13 -29 -1 -7 20 -56 19 -84 -1 -20 -14 -22 -14 -22 0 0 11 -10 16 -32 16
-30 -1 -31 -2 -15 -14z"/>
<path d="M6920 1361 c0 -5 7 -11 15 -15 12 -4 15 -26 15 -112 0 -90 -3 -109
-17 -120 -16 -12 -11 -13 35 -14 33 0 51 4 47 10 -3 6 -13 10 -21 10 -10 0
-14 12 -14 43 l0 43 39 -4 c55 -5 91 30 91 88 0 68 -65 106 -112 63 -17 -15
-18 -15 -18 0 0 12 -9 17 -30 17 -16 0 -30 -4 -30 -9z m141 -27 c17 -20 17
-88 0 -108 -16 -19 -52 -21 -69 -4 -15 15 -16 82 -2 109 13 23 53 25 71 3z"/>
<path d="M7140 1360 c0 -5 5 -10 10 -10 6 0 10 -28 10 -63 0 -36 5 -68 12 -75
17 -17 59 -15 86 4 20 14 22 14 22 0 0 -11 10 -16 33 -16 29 1 30 2 15 14 -14
10 -18 28 -18 85 l0 71 -32 0 c-30 -1 -31 -2 -15 -14 25 -19 23 -90 -3 -116
-44 -44 -74 -10 -68 76 3 53 3 54 -24 54 -16 0 -28 -4 -28 -10z"/>
<path d="M7505 1345 c-32 -31 -34 -96 -5 -125 31 -31 130 -23 130 11 0 6 -7 6
-20 -1 -37 -20 -72 -8 -87 28 l-13 32 60 0 c56 0 60 1 60 23 0 56 -81 77 -125
32z m73 3 c25 -25 14 -44 -28 -46 -44 -3 -48 3 -24 36 17 25 34 28 52 10z"/>
<path d="M7660 1361 c0 -5 7 -11 15 -15 23 -8 21 -121 -2 -135 -14 -8 -5 -10
37 -10 44 0 50 2 32 10 -21 8 -23 15 -22 66 3 94 3 93 -30 93 -16 0 -30 -4
-30 -9z"/>
<path d="M7743 1364 c-25 -11 -12 -25 20 -22 17 2 32 8 32 13 0 11 -33 17 -52
9z"/>
<path d="M6370 1001 c-21 -6 -22 -8 -7 -14 12 -5 17 -18 17 -49 l0 -44 -39 4
c-32 3 -45 -1 -65 -22 -33 -32 -37 -103 -8 -129 24 -22 70 -22 94 0 17 15 18
15 18 0 0 -12 9 -17 30 -17 17 0 30 5 30 10 0 6 -7 10 -16 10 -13 0 -15 18
-12 130 2 83 -1 130 -7 129 -5 -1 -21 -4 -35 -8z m-9 -121 c21 -12 27 -77 9
-111 -12 -22 -52 -25 -69 -6 -21 26 -24 75 -7 102 18 27 36 31 67 15z"/>
<path d="M7130 1000 c-17 -5 -19 -8 -7 -9 15 -1 17 -14 17 -125 0 -90 -3 -126
-12 -129 -7 -3 7 -5 32 -5 25 0 39 2 33 5 -8 3 -13 25 -13 57 0 41 5 57 21 72
34 30 53 8 57 -64 2 -51 0 -61 -15 -65 -10 -3 5 -5 32 -6 38 0 46 2 33 10 -14
8 -18 24 -18 72 0 36 -5 68 -12 75 -17 17 -58 15 -80 -5 -17 -15 -18 -13 -18
55 0 76 -1 78 -50 62z"/>
<path d="M7786 1001 c-18 -7 -18 -8 -3 -14 15 -5 17 -23 17 -126 0 -105 -2
-120 -17 -124 -10 -3 5 -5 32 -6 38 0 46 2 33 10 -16 9 -18 27 -18 139 0 136
-1 138 -44 121z"/>
<path d="M4530 970 c-40 -40 -20 -92 45 -121 54 -24 69 -42 61 -74 -12 -49
-94 -38 -111 15 -10 33 -25 23 -18 -12 8 -42 17 -48 80 -48 44 0 55 4 72 26
39 49 20 86 -64 132 -33 18 -51 34 -53 49 -7 46 73 53 103 10 19 -27 28 -17
16 17 -9 23 -16 26 -61 26 -37 0 -55 -5 -70 -20z"/>
<path d="M4910 969 c0 -14 5 -19 17 -17 26 5 29 38 4 38 -15 0 -21 -6 -21 -21z"/>
<path d="M6537 963 c-7 -36 0 -42 18 -16 9 12 29 22 50 25 l35 4 0 -113 c0
-108 -1 -114 -22 -123 -17 -6 -7 -9 42 -9 49 0 59 3 43 9 -22 9 -23 15 -23
120 l0 110 35 0 c24 0 39 -6 47 -20 18 -29 28 -25 19 8 l-7 27 -116 3 -116 3
-5 -28z"/>
<path d="M4743 876 c-22 -20 -28 -32 -27 -65 2 -55 26 -81 75 -81 20 0 44 3
53 6 29 11 17 20 -23 16 -31 -3 -42 0 -55 19 -20 30 -21 83 0 103 20 20 43 20
50 1 6 -15 44 -21 44 -7 0 37 -77 43 -117 8z"/>
<path d="M4893 886 c13 -10 17 -28 17 -79 0 -54 -3 -66 -17 -70 -10 -3 4 -5
31 -6 44 -1 48 1 32 12 -16 11 -18 25 -14 85 l4 72 -36 0 c-31 -1 -33 -2 -17
-14z"/>
<path d="M5037 889 c-47 -28 -57 -108 -16 -145 26 -23 87 -21 113 6 11 11 15
20 9 20 -7 0 -15 -4 -18 -10 -12 -19 -63 -11 -79 12 -28 40 -21 48 45 48 l61
0 -7 27 c-4 16 -11 34 -17 40 -12 15 -66 16 -91 2z m61 -11 c21 -21 13 -37
-23 -44 -44 -8 -52 -1 -37 31 12 27 40 33 60 13z"/>
<path d="M5183 886 c13 -10 17 -28 17 -79 0 -54 -3 -66 -17 -70 -10 -3 4 -5
30 -6 41 -1 46 1 35 13 -13 12 -14 31 -9 99 2 25 46 44 66 27 22 -19 21 -116
-2 -129 -14 -8 -7 -10 32 -10 39 0 46 2 33 10 -14 8 -18 24 -18 72 0 36 -5 68
-12 75 -17 17 -63 15 -78 -3 -7 -8 -16 -15 -21 -15 -5 0 -6 7 -3 15 5 12 -2
15 -32 15 -35 -1 -37 -2 -21 -14z"/>
<path d="M5431 876 c-55 -58 -26 -146 48 -146 20 0 46 7 57 16 19 15 19 16 -1
8 -33 -11 -59 -6 -77 17 -20 24 -23 70 -8 100 13 23 48 25 56 4 6 -15 44 -21
44 -7 0 38 -85 44 -119 8z"/>
<path d="M5609 887 c-42 -32 -51 -100 -19 -135 27 -29 88 -30 121 -2 13 10 19
19 12 20 -6 0 -15 -4 -18 -10 -10 -16 -62 -12 -79 6 -9 8 -16 24 -16 35 0 16
7 19 55 19 52 0 55 2 55 24 0 14 -7 32 -16 40 -18 19 -72 20 -95 3z m72 -18
c13 -26 -1 -39 -43 -39 -20 0 -28 5 -28 18 0 42 51 57 71 21z"/>
<path d="M5862 884 c-12 -8 -22 -19 -22 -25 0 -17 29 -9 40 11 13 24 45 26 54
4 12 -31 5 -41 -33 -52 -46 -14 -64 -33 -59 -64 2 -19 10 -24 41 -26 21 -2 45
2 53 9 8 7 14 7 14 1 0 -14 35 -21 51 -11 11 7 11 9 -2 9 -22 0 -29 20 -29 84
0 29 -5 57 -12 64 -17 17 -69 15 -96 -4z m78 -87 c0 -13 -6 -32 -14 -43 -12
-15 -18 -17 -33 -8 -26 16 -22 46 7 61 35 18 40 16 40 -10z"/>
<path d="M6033 886 c13 -10 17 -28 17 -74 0 -48 -4 -63 -17 -71 -14 -8 -6 -10
32 -10 28 1 42 3 33 6 -14 4 -18 15 -18 59 0 46 3 56 25 70 42 27 55 13 55
-60 0 -42 -4 -66 -12 -69 -7 -3 7 -5 32 -5 25 0 39 2 33 5 -9 3 -13 26 -13 64
0 33 -5 69 -10 80 -13 23 -57 25 -88 3 -20 -14 -22 -14 -22 0 0 11 -10 16 -32
16 -30 -1 -31 -2 -15 -14z"/>
<path d="M6789 874 c-30 -32 -32 -93 -5 -123 26 -29 96 -29 121 -1 10 11 13
20 7 20 -6 0 -14 -4 -17 -10 -12 -19 -63 -11 -79 12 -28 40 -21 48 44 48 36 0
60 4 60 11 0 15 -21 53 -34 61 -25 17 -73 8 -97 -18z m81 -4 c15 -28 5 -40
-36 -40 -26 0 -34 4 -34 18 0 41 51 57 70 22z"/>
<path d="M6975 875 c-32 -31 -34 -96 -5 -125 20 -20 71 -27 104 -14 28 11 17
20 -19 16 -43 -5 -63 10 -71 54 -11 58 35 106 66 69 16 -19 40 -20 40 -1 0 34
-82 35 -115 1z"/>
<path d="M7353 886 c13 -10 17 -28 17 -74 0 -48 -4 -63 -17 -71 -14 -8 -6 -10
32 -10 28 1 42 3 33 6 -27 7 -25 96 3 124 37 37 54 22 57 -50 2 -45 -1 -67
-10 -72 -8 -5 7 -8 37 -8 28 1 42 3 33 6 -15 4 -18 16 -18 64 0 33 -5 69 -10
80 -13 23 -57 25 -88 3 -20 -14 -22 -14 -22 0 0 11 -10 16 -32 16 -30 -1 -31
-2 -15 -14z"/>
<path d="M7595 875 c-18 -17 -25 -35 -25 -63 0 -52 32 -82 86 -82 53 0 86 33
86 85 0 78 -92 116 -147 60z m88 -3 c26 -29 32 -78 13 -107 -30 -46 -77 -24
-91 43 -13 62 40 106 78 64z"/>
<path d="M7912 878 c-30 -33 -36 -70 -18 -106 17 -34 33 -42 81 -42 46 0 75
27 82 77 5 35 2 45 -20 67 -34 34 -94 36 -125 4z m92 -10 c19 -27 21 -99 4
-116 -7 -7 -22 -12 -35 -12 -43 0 -71 100 -37 134 22 22 50 20 68 -6z"/>
<path d="M8114 885 c-13 -9 -16 -22 -11 -53 3 -23 1 -45 -4 -48 -6 -3 -7 -14
-4 -24 3 -11 1 -29 -5 -41 -19 -35 -4 -67 35 -78 66 -18 125 14 125 67 0 28
-23 43 -72 49 -64 7 -72 11 -59 27 6 7 22 11 36 8 14 -2 36 3 51 13 20 13 25
23 22 45 -4 24 0 29 20 33 21 4 27 -3 58 -71 30 -66 33 -79 24 -108 -7 -22
-19 -34 -33 -36 -12 -2 -23 -11 -25 -20 -3 -14 1 -16 15 -11 33 12 41 23 83
126 24 56 52 110 62 120 20 17 19 17 -18 17 -26 0 -35 -3 -25 -9 12 -7 11 -17
-5 -60 -10 -28 -20 -51 -23 -51 -7 0 -41 81 -41 97 0 6 6 14 13 16 6 3 -36 5
-95 5 -69 0 -114 -5 -124 -13z m81 -28 c8 -24 6 -31 -9 -43 -27 -19 -56 -1
-56 35 0 34 8 43 34 39 12 -2 25 -15 31 -31z m6 -137 c38 -21 17 -70 -30 -70
-32 0 -61 27 -61 57 0 20 5 23 36 23 19 0 44 -5 55 -10z"/>
<path d="M4090 460 l0 -49 -52 -4 -53 -3 53 -2 c42 -2 52 -5 52 -19 0 -31 -44
-96 -79 -120 -38 -26 -34 -30 8 -8 42 21 77 68 86 111 l7 38 18 -53 c23 -68
59 -106 91 -96 22 7 22 8 -13 26 -38 19 -63 51 -74 93 -6 26 -6 26 51 26 51 0
56 2 45 15 -9 11 -16 13 -24 5 -5 -5 -29 -10 -52 -10 l-42 0 5 43 c4 34 2 45
-11 50 -13 5 -16 -2 -16 -43z"/>
<path d="M1950 470 c0 -32 0 -32 -47 -28 l-48 3 0 -62 c-1 -60 9 -81 21 -48 4
9 19 15 40 15 l34 0 0 -61 c0 -37 4 -58 10 -54 6 3 10 31 10 61 l0 54 34 0
c19 0 36 -5 38 -12 3 -7 10 -8 17 -4 8 5 11 23 9 47 -2 21 0 40 5 42 25 8 -23
22 -58 16 -38 -6 -38 -6 -7 -8 30 -1 32 -3 32 -36 0 -33 -2 -35 -36 -35 l-35
0 2 67 c2 44 -2 68 -9 71 -8 2 -12 -8 -12 -28z m0 -75 c0 -33 -2 -35 -35 -35
-33 0 -35 2 -35 35 0 33 2 35 35 35 33 0 35 -2 35 -35z"/>
<path d="M3460 416 l0 -84 -50 -7 c-28 -4 -48 -11 -45 -15 3 -5 20 -4 38 1 56
16 59 13 55 -36 -2 -27 1 -44 7 -42 5 2 11 24 13 49 3 40 6 47 29 53 21 5 23
9 13 18 -10 9 -14 9 -17 0 -3 -7 -9 -13 -15 -13 -6 0 -8 30 -6 75 2 53 -1 76
-9 80 -10 3 -13 -16 -13 -79z"/>
<path d="M4860 450 l0 -49 -42 -4 -43 -4 43 -1 42 -2 0 -81 c0 -51 4 -78 10
-74 6 3 10 40 10 81 l0 74 40 0 c22 0 40 4 40 9 0 15 -18 23 -25 11 -3 -5 -18
-10 -32 -10 -24 0 -25 3 -21 45 2 29 -1 46 -9 50 -9 3 -13 -9 -13 -45z"/>
<path d="M5459 477 c-6 -12 -21 -33 -33 -47 -19 -22 -19 -23 -1 -10 11 8 25
21 31 29 9 11 13 10 28 -4 9 -10 19 -15 22 -12 10 9 -6 27 -24 27 -16 1 -15 2
1 14 15 12 15 14 2 19 -9 4 -19 -2 -26 -16z"/>
<path d="M5561 465 c-20 -35 -20 -46 2 -22 29 30 37 46 28 51 -5 3 -18 -10
-30 -29z"/>
<path d="M6172 466 c4 -33 2 -36 -22 -37 -22 -2 -22 -2 -3 -6 18 -4 20 -8 13
-32 -4 -15 -15 -43 -24 -62 -16 -33 -16 -33 1 -13 10 12 23 30 29 40 8 13 9 1
6 -48 -5 -83 13 -95 64 -44 33 33 34 36 34 115 l0 81 30 0 30 0 0 -105 0 -105
29 0 c37 0 43 9 31 46 l-8 29 -1 -27 c-1 -18 -6 -28 -17 -28 -13 0 -15 15 -13
101 1 64 -3 105 -10 112 -8 8 -11 8 -11 -2 0 -10 -11 -12 -40 -8 l-40 5 0 -89
c0 -84 -1 -90 -30 -121 l-29 -33 0 75 -1 75 20 -25 c16 -20 20 -21 20 -8 0 10
-9 22 -20 28 -29 15 -25 40 6 40 15 0 23 4 19 10 -4 6 -16 8 -27 4 -17 -5 -19
-2 -16 27 2 21 -2 34 -11 37 -10 3 -12 -4 -9 -32z"/>
<path d="M6963 471 c12 -32 27 -42 27 -18 0 8 -9 22 -20 32 -19 17 -19 17 -7
-14z"/>
<path d="M7026 465 c-12 -29 -20 -34 -53 -38 l-38 -4 43 -1 c23 -1 42 2 42 7
0 4 11 20 24 34 18 20 21 27 10 31 -9 3 -19 -7 -28 -29z"/>
<path d="M7717 481 c3 -13 -1 -21 -14 -24 -10 -3 -6 -4 10 -4 22 1 27 6 25 21
-2 11 -8 21 -15 23 -7 3 -9 -3 -6 -16z"/>
<path d="M2570 363 c0 -75 4 -123 10 -123 6 0 10 5 10 10 0 6 35 10 85 10 54
0 85 -4 85 -11 0 -6 5 -9 11 -7 8 3 11 43 11 122 l-1 118 -105 2 -106 1 0
-122z m192 27 c2 -44 0 -80 -4 -80 -5 0 -8 5 -8 12 0 9 -3 9 -12 0 -7 -7 -22
-12 -35 -12 -20 0 -23 5 -23 35 0 21 5 35 13 36 10 0 10 2 0 6 -7 2 -13 13
-13 24 0 15 7 19 35 19 19 0 35 4 35 9 0 15 -18 23 -25 11 -3 -5 -34 -11 -68
-11 -49 -2 -55 -3 -27 -8 35 -6 35 -6 38 -63 l2 -57 -37 -4 c-21 -2 -1 -4 45
-5 65 -2 82 -5 82 -17 0 -12 -16 -15 -85 -15 l-85 0 0 100 0 100 84 0 84 0 4
-80z"/>
<path d="M2715 390 c-3 -5 1 -10 10 -10 9 0 13 5 10 10 -3 6 -8 10 -10 10 -2
0 -7 -4 -10 -10z"/>
<path d="M2618 383 c6 -2 18 -2 25 0 6 3 1 5 -13 5 -14 0 -19 -2 -12 -5z"/>
<path d="M2702 351 c13 -22 28 -28 28 -11 0 5 -9 14 -20 20 -19 10 -20 10 -8
-9z"/>
<path d="M3315 473 c-47 -17 -61 -28 -22 -19 24 6 27 4 27 -19 0 -21 -5 -25
-32 -26 l-33 -2 33 -6 33 -6 -29 -57 c-30 -59 -24 -69 9 -14 l19 31 0 -62 c0
-35 4 -63 10 -63 8 0 16 115 11 158 -1 7 9 12 24 12 14 0 24 4 21 9 -3 5 -15
7 -26 4 -17 -5 -20 0 -20 26 0 24 4 31 20 31 11 0 20 5 20 10 0 13 -15 11 -65
-7z"/>
<path d="M4730 486 c0 -19 22 -56 30 -51 17 10 11 34 -10 45 -11 6 -20 9 -20
6z"/>
<path d="M6902 464 c10 -21 9 -27 -3 -35 -11 -7 -9 -9 9 -9 16 0 22 6 22 23 0
23 -16 47 -32 47 -4 0 -2 -12 4 -26z"/>
<path d="M7575 364 c0 -76 4 -124 10 -124 11 0 8 230 -3 242 -4 4 -7 -49 -7
-118z"/>
<path d="M5525 470 c-3 -5 1 -10 10 -10 9 0 13 5 10 10 -3 6 -8 10 -10 10 -2
0 -7 -4 -10 -10z"/>
<path d="M5636 472 c-3 -6 3 -12 15 -15 12 -3 19 -1 16 6 -5 15 -24 20 -31 9z"/>
<path d="M7621 441 c-9 -33 -9 -44 6 -71 16 -28 17 -32 2 -43 -9 -7 -14 -18
-11 -25 3 -10 7 -10 18 -1 18 15 18 59 -1 85 -13 19 -12 25 4 58 13 25 15 36
7 36 -7 0 -18 -18 -25 -39z"/>
<path d="M3400 465 c1 -6 7 -21 14 -34 9 -17 15 -20 21 -11 4 7 -1 21 -14 33
-11 12 -21 17 -21 12z"/>
<path d="M5597 439 c6 -21 3 -21 -63 -18 l-69 4 0 -52 c0 -31 4 -52 10 -49 6
2 9 11 9 20 -2 13 9 16 57 16 46 0 59 -3 59 -15 0 -8 5 -15 10 -15 11 0 13 51
4 99 -4 17 -10 31 -14 31 -5 0 -6 -10 -3 -21z m-24 -36 c-18 -2 -48 -2 -65 0
-18 2 -4 4 32 4 36 0 50 -2 33 -4z m27 -23 c0 -6 -27 -10 -60 -10 -33 0 -60 4
-60 10 0 6 27 10 60 10 33 0 60 -4 60 -10z"/>
<path d="M7662 440 c-6 -11 -12 -25 -12 -32 0 -19 23 8 27 32 4 25 1 25 -15 0z"/>
<path d="M7750 449 c0 -5 5 -7 10 -4 6 3 10 8 10 11 0 2 -4 4 -10 4 -5 0 -10
-5 -10 -11z"/>
<path d="M7775 438 c-8 -18 -20 -24 -52 -26 -24 -2 -43 -6 -43 -10 0 -4 22 -5
50 -4 27 2 47 8 44 13 -3 5 6 14 20 20 14 7 23 16 20 20 -10 16 -29 9 -39 -13z"/>
<path d="M6863 413 c-14 -29 -9 -43 8 -26 6 6 9 20 7 32 -3 19 -4 19 -15 -6z"/>
<path d="M7055 429 c-23 -5 -25 -7 -8 -8 17 -1 21 -5 16 -18 -5 -15 -4 -16 8
-7 8 6 20 13 28 16 27 8 -13 25 -44 17z"/>
<path d="M4715 400 l-30 -8 28 -1 29 -1 -4 -72 c-1 -40 0 -73 4 -73 7 0 58 65
58 73 0 3 -9 -3 -21 -14 l-21 -19 3 60 c3 63 0 67 -46 55z"/>
<path d="M3397 370 c7 -25 19 -34 28 -20 7 11 -11 40 -25 40 -5 0 -6 -9 -3
-20z"/>
<path d="M6890 381 c0 -5 16 -8 35 -8 19 1 35 5 35 9 0 4 -16 8 -35 8 -19 0
-35 -4 -35 -9z"/>
<path d="M6970 380 c0 -5 5 -10 11 -10 5 0 7 5 4 10 -3 6 -8 10 -11 10 -2 0
-4 -4 -4 -10z"/>
<path d="M6993 364 c-16 -17 -23 -37 -23 -66 0 -38 -1 -40 -27 -35 l-27 5 24
-18 c30 -23 50 -10 50 30 0 26 3 28 50 32 52 5 69 13 57 25 -4 4 -13 1 -19 -5
-7 -7 -29 -12 -51 -12 -47 0 -46 17 1 41 25 13 29 18 16 23 -22 9 -26 7 -51
-20z"/>
<path d="M7785 370 c-3 -5 -34 -11 -68 -11 -34 -1 -54 -3 -44 -6 9 -2 17 -11
17 -19 0 -20 -28 -74 -38 -74 -5 0 -17 -7 -28 -15 -11 -10 -2 -8 23 5 34 16
45 28 54 60 7 22 16 40 20 40 4 0 9 -24 11 -52 3 -51 4 -53 33 -56 42 -3 54 8
47 43 -6 30 -6 30 -12 5 -4 -16 -14 -26 -28 -28 -20 -3 -22 1 -22 42 0 44 1
46 30 46 17 0 30 4 30 9 0 15 -18 23 -25 11z"/>
<path d="M3350 363 c1 -18 18 -35 24 -24 4 6 4 16 1 21 -7 12 -25 13 -25 3z"/>
<path d="M5538 333 c7 -3 16 -2 19 1 4 3 -2 6 -13 5 -11 0 -14 -3 -6 -6z"/>
<path d="M5500 320 c0 -5 -21 -11 -47 -12 l-48 -1 43 -4 c23 -2 42 -7 42 -11
-1 -16 -17 -31 -50 -46 -34 -15 -34 -15 -5 -9 40 7 75 30 75 48 0 10 11 15 35
15 33 0 35 -2 35 -36 0 -21 4 -33 10 -29 6 3 10 19 10 36 0 27 2 29 41 29 35
0 40 2 29 15 -9 11 -16 12 -31 2 -15 -9 -23 -9 -39 1 -12 7 -20 8 -20 2 0 -5
-13 -10 -30 -10 -16 0 -30 5 -30 10 0 6 -4 10 -10 10 -5 0 -10 -4 -10 -10z"/>
<path d="M6846 318 c3 -4 31 -8 62 -7 66 1 60 6 -15 12 -29 2 -50 0 -47 -5z"/>
</g>
</svg>
